<svg xmlns="http://www.w3.org/2000/svg" xmlns:xlink="http://www.w3.org/1999/xlink" width="500" zoomAndPan="magnify" viewBox="0 0 375 374.999991" height="500" preserveAspectRatio="xMidYMid meet" version="1.0"><path fill="#ffffff" d="M 332.542969 223.476562 L 102.644531 223.476562 C 96.761719 221.214844 90.878906 218.949219 86.804688 214.425781 C 83.183594 204.921875 80.921875 193.609375 80.015625 183.199219 C 80.46875 182.746094 81.375 182.292969 81.828125 181.839844 C 86.804688 175.957031 82.734375 161.476562 99.929688 160.117188 C 101.738281 159.667969 103.550781 159.214844 104.90625 158.761719 C 105.359375 158.761719 105.8125 158.761719 106.265625 158.761719 L 333.449219 158.761719 C 329.375 165.550781 324.847656 175.507812 323.945312 188.175781 C 323.492188 203.113281 328.015625 215.332031 332.542969 223.476562 Z M 105.359375 174.148438 L 309.007812 174.148438 M 105.359375 190.441406 L 309.007812 190.441406 M 105.359375 206.730469 L 309.007812 206.730469 M 263.300781 100.835938 C 263.753906 85.898438 254.703125 62.820312 254.703125 62.820312 C 254.703125 62.820312 56.03125 64.628906 34.308594 62.820312 C 37.476562 66.894531 45.625 78.207031 46.527344 94.5 C 47.886719 115.316406 37.023438 129.796875 34.308594 133.417969 C 77.753906 132.511719 122.105469 131.609375 167.359375 131.609375 C 215.332031 131.609375 256.511719 131.609375 256.511719 131.609375 C 256.511719 131.609375 262.847656 114.410156 263.300781 100.835938 Z M 237.507812 87.257812 L 60.105469 87.257812 M 237.507812 105.8125 L 60.105469 105.8125 M 325.300781 305.839844 C 326.207031 285.476562 315.34375 253.34375 315.34375 253.34375 C 315.34375 253.34375 80.46875 256.058594 54.675781 253.34375 C 58.746094 259.226562 68.25 274.613281 69.15625 297.242188 C 70.515625 325.753906 58.292969 346.117188 54.675781 351.097656 C 106.265625 349.738281 158.761719 348.382812 211.710938 348.382812 C 268.730469 348.382812 316.703125 348.382812 316.703125 348.382812 C 316.703125 348.382812 324.847656 324.847656 325.300781 305.839844 Z M 207.183594 9.871094 C 205.375 11.679688 198.132812 19.375 197.679688 30.234375 C 197.230469 42.90625 204.46875 51.054688 205.828125 52.410156 C 218.5 45.621094 231.171875 39.289062 244.292969 32.5 Z M 294.980469 273.710938 L 85.449219 273.710938 M 233.886719 293.167969 C 184.558594 293.167969 134.777344 293.167969 85.449219 293.167969 M 294.980469 293.167969 C 290.003906 293.167969 285.023438 293.167969 280.046875 293.167969 M 233.886719 313.082031 C 184.558594 313.082031 134.777344 313.082031 85.449219 313.082031 M 294.980469 313.082031 C 290.003906 313.082031 285.023438 313.082031 280.046875 313.082031 M 233.886719 332.542969 C 184.558594 332.542969 134.777344 332.542969 85.449219 332.542969 M 294.980469 332.542969 C 290.003906 332.542969 285.023438 332.542969 280.046875 332.542969 " fill-opacity="1" fill-rule="nonzero"/><path fill="#44b875" d="M 29.332031 123.007812 C 29.332031 123.007812 242.484375 126.175781 248.820312 122.558594 C 253.34375 119.839844 258.777344 109.886719 258.324219 94.953125 C 257.871094 79.566406 252.441406 72.324219 247.914062 70.0625 C 243.390625 67.796875 29.332031 70.0625 29.332031 70.0625 C 24.804688 70.0625 20.734375 66.441406 20.734375 61.460938 C 20.734375 56.9375 24.351562 52.863281 29.332031 52.863281 L 245.199219 52.863281 C 248.367188 52.863281 261.039062 54.675781 267.828125 65.535156 C 273.710938 75.492188 274.164062 114.410156 268.730469 125.273438 C 261.039062 141.113281 246.558594 139.300781 245.199219 139.300781 L 29.332031 139.300781 C 24.804688 139.300781 20.734375 135.679688 20.734375 130.703125 C 20.734375 127.082031 24.804688 123.007812 29.332031 123.007812 Z M 95.855469 10.777344 L 78.207031 10.777344 L 78.207031 52.410156 L 95.855469 52.410156 Z M 95.855469 10.777344 " fill-opacity="1" fill-rule="nonzero"/><path fill="#2e4897" d="M 330.28125 348.382812 C 321.679688 366.484375 304.9375 364.671875 303.125 364.671875 L 55.125 364.671875 C 49.695312 364.671875 45.625 360.148438 45.625 355.167969 C 45.625 349.738281 50.148438 345.664062 55.125 345.664062 C 58.292969 345.664062 61.460938 345.664062 64.628906 345.664062 C 76.847656 345.664062 89.070312 346.117188 101.289062 346.117188 C 119.390625 346.117188 137.039062 346.570312 155.140625 346.570312 C 174.601562 346.570312 194.511719 347.023438 213.972656 347.023438 C 231.621094 347.023438 248.820312 347.023438 266.46875 347.023438 C 273.257812 347.023438 279.59375 347.023438 286.382812 346.570312 C 293.621094 346.570312 304.03125 346.570312 308.105469 343.402344 C 318.511719 335.710938 318.058594 318.058594 318.058594 306.746094 C 318.058594 292.71875 317.15625 260.132812 299.957031 259.679688 C 289.550781 259.679688 279.140625 259.226562 269.183594 259.226562 C 252.894531 259.226562 236.601562 259.226562 220.308594 259.226562 C 201.300781 259.226562 182.746094 259.226562 163.738281 259.226562 C 146.089844 259.226562 127.988281 259.679688 110.339844 259.679688 C 97.214844 259.679688 83.636719 259.679688 70.515625 260.132812 C 65.082031 260.132812 60.105469 260.132812 54.675781 260.132812 C 49.242188 260.132812 45.171875 255.609375 45.171875 250.628906 C 45.171875 245.199219 49.695312 241.125 54.675781 241.125 C 56.484375 241.125 58.746094 241.125 60.558594 241.125 C 108.980469 241.125 156.953125 241.125 205.375 241.125 C 230.265625 241.125 254.703125 241.125 279.59375 241.125 C 295.433594 241.125 314.441406 238.410156 325.753906 252.441406 C 332.542969 261.492188 331.183594 272.351562 332.089844 282.761719 C 333.449219 295.886719 333.898438 309.007812 333.449219 322.132812 C 333.449219 322.132812 333.449219 322.132812 333.449219 322.585938 C 334.351562 330.730469 333.898438 340.6875 330.28125 348.382812 Z M 76.398438 10.777344 C 66.441406 11.230469 58.292969 19.828125 58.292969 29.785156 L 58.292969 32.953125 C 58.292969 43.359375 66.441406 51.507812 76.398438 51.957031 Z M 76.398438 10.777344 " fill-opacity="1" fill-rule="nonzero"/><path fill="#ffd034" d="M 353.8125 230.265625 C 353.8125 235.695312 349.285156 239.769531 344.308594 239.769531 L 96.308594 239.769531 C 94.5 239.769531 77.753906 241.578125 69.15625 223.476562 C 62.820312 210.804688 63.273438 166.003906 70.515625 154.6875 C 78.207031 142.015625 93.140625 140.207031 96.308594 140.207031 L 344.308594 140.207031 C 349.738281 140.207031 353.8125 144.730469 353.8125 149.710938 C 353.8125 155.140625 349.285156 159.214844 344.308594 159.214844 C 344.308594 159.214844 98.570312 156.5 93.59375 159.214844 C 88.617188 161.929688 81.828125 170.074219 81.828125 187.726562 C 81.375 204.921875 87.257812 216.6875 92.6875 219.402344 C 100.382812 223.476562 344.308594 219.855469 344.308594 219.855469 C 349.738281 220.761719 353.8125 224.835938 353.8125 230.265625 Z M 197.230469 31.140625 C 197.230469 43.359375 204.921875 51.054688 206.28125 52.410156 L 96.761719 52.410156 L 96.761719 10.777344 L 206.28125 10.777344 C 204.921875 12.132812 197.230469 19.375 197.230469 31.140625 Z M 275.066406 295.433594 C 275.066406 293.167969 272.804688 290.90625 270.542969 290.90625 L 241.578125 290.90625 C 239.316406 290.90625 237.054688 292.71875 237.054688 295.433594 L 237.054688 353.359375 C 237.054688 355.621094 238.863281 356.980469 241.125 355.621094 L 252.441406 348.832031 C 254.703125 347.476562 257.871094 347.476562 260.132812 348.832031 L 271.449219 355.621094 C 273.710938 356.980469 275.519531 356.074219 275.519531 353.359375 L 275.519531 295.433594 Z M 275.066406 295.433594 " fill-opacity="1" fill-rule="nonzero"/><path fill="#000000" d="M 344.308594 218.5 C 340.6875 218.5 336.617188 218.5 332.542969 218.5 C 328.921875 210.804688 325.753906 200.394531 326.660156 188.175781 C 327.5625 177.316406 330.730469 168.71875 334.351562 161.929688 C 337.519531 161.929688 340.6875 161.929688 343.855469 161.929688 C 350.644531 161.929688 355.621094 156.5 355.621094 150.164062 C 355.621094 143.828125 350.191406 138.394531 343.855469 138.394531 L 261.039062 138.394531 C 265.113281 135.679688 268.730469 132.0625 270.996094 127.082031 C 276.878906 115.316406 275.972656 75.039062 270.089844 65.082031 C 263.300781 53.769531 250.175781 51.507812 245.652344 51.507812 L 213.972656 51.507812 L 245.652344 35.667969 C 246.558594 35.214844 247.007812 34.761719 247.007812 33.855469 C 247.007812 32.953125 246.558594 32.5 246.105469 32.046875 C 245.652344 31.59375 245.199219 31.59375 244.746094 31.140625 C 243.390625 30.234375 242.03125 29.785156 240.675781 28.878906 C 238.863281 27.972656 237.054688 26.617188 235.242188 25.710938 C 232.980469 24.351562 231.171875 22.996094 228.90625 21.636719 C 226.644531 20.28125 224.382812 18.921875 222.121094 17.566406 C 220.308594 16.207031 218.046875 15.300781 216.234375 13.945312 C 214.878906 13.039062 213.066406 12.132812 211.710938 11.230469 C 210.804688 10.777344 209.898438 10.324219 208.996094 9.871094 C 208.542969 9.417969 207.636719 9.417969 206.730469 9.417969 C 206.730469 9.417969 78.660156 8.0625 71.417969 10.324219 C 63.726562 12.585938 57.84375 19.828125 56.484375 27.972656 C 55.125 36.570312 58.292969 46.527344 65.535156 51.507812 C 65.535156 51.507812 65.535156 51.507812 65.988281 51.957031 L 29.785156 51.957031 C 23.902344 51.957031 18.921875 56.9375 18.921875 62.820312 C 18.921875 68.703125 23.449219 72.324219 29.332031 72.324219 C 32.046875 72.324219 34.761719 72.324219 37.476562 72.324219 C 40.644531 78.207031 43.359375 85.898438 44.265625 94.953125 C 44.71875 105.359375 42.457031 114.410156 39.289062 120.746094 C 36.121094 120.746094 32.5 120.746094 29.332031 120.746094 C 23.449219 120.746094 18.46875 125.726562 18.46875 131.609375 C 18.46875 137.492188 23.449219 142.46875 29.332031 142.46875 L 81.375 142.46875 C 76.398438 144.730469 71.871094 148.351562 68.25 154.234375 C 61.011719 165.550781 60.558594 211.257812 66.894531 224.835938 C 70.0625 231.171875 74.132812 235.695312 79.566406 238.863281 L 55.125 238.863281 C 48.339844 238.863281 43.359375 244.292969 43.359375 250.628906 C 43.359375 256.964844 48.792969 262.394531 55.125 262.394531 L 70.964844 262.394531 C 84.089844 262.394531 97.667969 261.945312 110.789062 261.945312 C 128.441406 261.945312 146.542969 261.492188 164.191406 261.492188 C 183.199219 261.492188 201.753906 261.492188 220.761719 261.492188 C 237.054688 261.492188 253.34375 261.492188 269.636719 261.492188 C 274.617188 261.492188 280.046875 261.492188 285.023438 261.945312 C 290.003906 261.945312 295.433594 262.394531 300.410156 262.394531 C 314.441406 262.394531 316.25 290.453125 316.25 307.199219 L 316.25 308.554688 C 316.25 319.871094 316.25 335.257812 307.199219 341.59375 C 304.03125 343.855469 295.433594 343.855469 289.550781 343.855469 L 286.835938 343.855469 C 283.667969 343.855469 280.5 343.855469 277.332031 343.855469 L 277.332031 334.804688 L 294.980469 334.804688 C 296.339844 334.804688 297.242188 333.898438 297.242188 332.542969 C 297.242188 331.183594 296.339844 330.277344 294.980469 330.277344 L 277.332031 330.277344 L 277.332031 315.34375 L 294.980469 315.34375 C 296.339844 315.34375 297.242188 314.441406 297.242188 313.082031 C 297.242188 311.722656 296.339844 310.820312 294.980469 310.820312 L 277.332031 310.820312 L 277.332031 295.886719 L 294.980469 295.886719 C 296.339844 295.886719 297.242188 294.980469 297.242188 293.621094 C 297.242188 292.265625 296.339844 291.359375 294.980469 291.359375 L 275.519531 291.359375 C 274.164062 290 272.351562 289.097656 270.542969 289.097656 L 241.578125 289.097656 C 239.316406 289.097656 237.507812 290 236.601562 291.359375 L 85.449219 291.359375 C 84.089844 291.359375 83.183594 292.265625 83.183594 293.621094 C 83.183594 294.980469 84.089844 295.886719 85.449219 295.886719 L 234.789062 295.886719 L 234.789062 310.820312 L 85.449219 310.820312 C 84.089844 310.820312 83.183594 311.722656 83.183594 313.082031 C 83.183594 314.441406 84.089844 315.34375 85.449219 315.34375 L 234.789062 315.34375 L 234.789062 330.277344 L 85.449219 330.277344 C 84.089844 330.277344 83.183594 331.183594 83.183594 332.542969 C 83.183594 333.898438 84.089844 334.804688 85.449219 334.804688 L 234.789062 334.804688 L 234.789062 344.761719 C 227.550781 344.761719 220.761719 344.761719 214.425781 344.761719 C 194.964844 344.761719 175.054688 344.761719 155.59375 344.308594 C 137.492188 344.308594 119.84375 343.855469 101.738281 343.855469 C 89.519531 343.855469 77.300781 343.402344 65.082031 343.402344 L 62.820312 343.402344 C 67.796875 332.996094 73.230469 317.15625 71.871094 298.148438 C 70.964844 283.214844 66.441406 270.542969 62.367188 261.945312 L 56.484375 261.945312 C 61.011719 270.089844 65.988281 283.214844 66.894531 298.601562 C 67.796875 318.058594 62.367188 333.898438 57.390625 343.402344 C 56.9375 343.402344 56.03125 343.402344 55.578125 343.402344 C 48.792969 343.402344 43.8125 348.832031 43.8125 355.167969 C 43.8125 361.503906 49.242188 366.9375 55.578125 366.9375 L 303.578125 366.9375 C 304.03125 366.9375 304.484375 366.9375 304.9375 366.9375 C 317.15625 366.9375 327.113281 360.601562 332.542969 349.285156 C 336.164062 341.59375 336.617188 330.277344 337.066406 322.132812 C 337.519531 310.367188 337.066406 297.242188 335.710938 282.308594 C 335.710938 280.046875 335.257812 277.78125 335.257812 275.519531 C 334.804688 267.375 334.351562 258.324219 328.46875 251.082031 C 325.300781 247.007812 321.679688 244.292969 318.058594 242.484375 L 344.761719 242.484375 C 351.550781 242.484375 356.527344 237.054688 356.527344 230.71875 C 356.527344 224.382812 350.644531 218.5 344.308594 218.5 Z M 322.132812 188.175781 C 321.226562 200.394531 323.945312 210.804688 327.5625 218.949219 C 231.621094 220.308594 100.382812 221.214844 93.59375 218.5 C 89.519531 216.234375 83.636719 206.730469 84.089844 188.628906 C 84.542969 169.171875 92.234375 163.285156 94.5 162.382812 C 100.835938 160.570312 233.433594 161.476562 329.828125 162.382812 C 326.207031 168.71875 323.039062 177.769531 322.132812 188.175781 Z M 207.636719 13.492188 L 226.191406 24.804688 L 226.191406 40.191406 L 206.28125 49.695312 C 203.566406 46.527344 199.039062 39.738281 199.492188 30.6875 C 199.945312 24.804688 202.660156 18.921875 207.636719 13.492188 Z M 99.023438 13.039062 L 202.207031 13.039062 C 198.132812 18.46875 195.871094 24.351562 195.417969 30.234375 C 194.964844 38.835938 198.585938 45.621094 201.300781 49.695312 L 99.023438 49.695312 Z M 89.070312 13.039062 L 94.5 13.039062 L 94.5 50.148438 L 89.070312 50.148438 Z M 78.660156 13.039062 L 84.542969 13.039062 L 84.542969 50.148438 L 78.660156 50.148438 Z M 65.082031 44.71875 C 64.628906 44.265625 64.179688 43.8125 63.726562 43.359375 C 63.273438 42.90625 63.273438 42.90625 62.820312 42.457031 C 62.367188 42.003906 62.367188 41.550781 61.914062 40.644531 C 61.914062 40.191406 61.914062 39.738281 61.914062 39.738281 C 61.460938 38.835938 61.460938 38.382812 61.011719 37.476562 C 61.011719 37.023438 61.011719 37.023438 60.558594 36.570312 C 60.558594 35.667969 60.105469 34.308594 60.105469 33.402344 L 60.105469 30.234375 C 60.105469 29.332031 60.105469 27.972656 60.558594 27.066406 C 60.558594 26.617188 60.558594 26.617188 61.011719 26.164062 C 61.011719 25.257812 61.460938 24.804688 61.460938 23.902344 C 61.914062 23.449219 61.914062 22.996094 62.367188 22.542969 C 62.820312 22.089844 62.820312 21.183594 63.273438 20.734375 C 63.273438 20.28125 63.726562 20.28125 64.179688 19.828125 C 64.628906 19.375 65.082031 18.921875 65.535156 18.46875 C 65.988281 18.015625 65.988281 18.015625 66.441406 17.566406 C 66.894531 17.113281 67.347656 16.660156 67.796875 16.660156 C 68.25 16.207031 68.703125 16.207031 68.703125 15.753906 C 69.15625 15.300781 69.609375 15.300781 70.0625 14.847656 C 70.515625 14.398438 70.964844 14.398438 71.417969 14.398438 C 71.871094 14.398438 72.324219 13.945312 72.777344 13.945312 C 73.230469 13.945312 73.679688 13.492188 74.585938 13.492188 L 74.585938 49.695312 C 74.132812 49.695312 73.230469 49.242188 72.777344 49.242188 C 72.324219 49.242188 71.871094 48.789062 71.417969 48.789062 C 70.964844 48.789062 70.515625 48.339844 70.0625 48.339844 C 69.609375 47.886719 69.15625 47.886719 68.703125 47.433594 C 68.25 46.980469 67.796875 46.980469 67.796875 46.527344 C 67.347656 46.074219 66.894531 45.621094 66.441406 45.621094 C 65.535156 45.171875 65.082031 45.171875 65.082031 44.71875 Z M 48.792969 94.5 C 48.339844 85.449219 45.625 78.207031 42.457031 71.871094 C 126.179688 70.964844 241.125 70.511719 246.558594 71.871094 C 248.820312 72.777344 255.609375 77.753906 255.609375 94.953125 C 256.0625 110.339844 250.628906 118.9375 247.460938 120.746094 C 241.125 123.007812 127.082031 122.105469 43.8125 121.199219 C 47.433594 113.957031 49.695312 104.90625 48.792969 94.5 Z M 29.332031 137.945312 C 25.710938 137.945312 22.996094 135.230469 22.996094 131.609375 C 22.996094 128.441406 25.710938 125.273438 29.332031 125.273438 C 65.082031 125.726562 243.390625 128.441406 249.726562 124.820312 C 255.15625 122.105469 260.585938 111.242188 260.585938 94.953125 C 260.132812 76.398438 252.441406 70.0625 248.820312 68.25 C 244.292969 65.988281 93.59375 67.34375 29.332031 67.796875 C 25.710938 67.796875 22.996094 65.082031 22.996094 61.460938 C 22.996094 57.84375 25.710938 55.125 29.332031 55.125 L 245.199219 55.125 C 245.199219 55.125 259.230469 55.578125 266.015625 66.894531 C 271.449219 75.945312 271.898438 113.957031 266.921875 124.367188 C 262.847656 132.964844 255.15625 137.492188 245.652344 137.492188 Z M 239.316406 295.433594 C 239.316406 294.074219 240.222656 293.167969 241.578125 293.167969 L 270.542969 293.167969 C 271.898438 293.167969 272.804688 294.074219 272.804688 295.433594 L 272.804688 353.8125 L 272.351562 353.8125 L 261.039062 346.570312 C 258.324219 344.761719 253.796875 344.761719 251.082031 346.570312 L 239.769531 353.359375 C 239.769531 353.359375 239.316406 353.359375 239.316406 353.8125 Z M 324.394531 253.34375 C 329.375 259.679688 329.828125 267.375 330.28125 275.519531 C 330.28125 277.78125 330.28125 280.5 330.730469 282.761719 C 332.089844 297.695312 332.542969 310.367188 332.089844 321.679688 L 332.089844 322.132812 C 332.089844 329.828125 331.636719 340.234375 328.015625 347.023438 C 323.039062 357.433594 314.441406 362.410156 303.578125 361.957031 L 55.125 361.957031 C 51.054688 361.957031 47.886719 358.789062 47.886719 354.71875 C 47.886719 350.644531 51.054688 347.476562 55.125 347.476562 C 56.9375 347.476562 59.199219 347.476562 61.011719 347.476562 L 64.179688 347.476562 C 76.398438 347.476562 88.617188 347.929688 100.835938 347.929688 C 118.9375 347.929688 136.585938 348.382812 154.6875 348.382812 C 174.601562 348.382812 194.0625 348.832031 213.972656 348.832031 C 220.308594 348.832031 227.097656 348.832031 234.339844 348.832031 L 234.339844 353.359375 C 234.339844 355.167969 235.242188 356.980469 236.601562 357.886719 C 237.054688 358.335938 237.957031 358.335938 238.863281 358.335938 C 239.769531 358.335938 240.675781 357.886719 242.03125 357.433594 L 253.34375 350.644531 C 254.703125 349.738281 257.417969 349.738281 258.777344 350.644531 L 270.089844 357.433594 C 271.898438 358.335938 273.710938 358.789062 275.066406 357.886719 C 276.425781 356.980469 277.332031 355.621094 277.332031 353.359375 L 277.332031 348.832031 C 280.5 348.832031 283.667969 348.832031 286.835938 348.832031 L 289.550781 348.832031 C 297.242188 348.832031 305.390625 348.382812 309.914062 345.214844 C 320.777344 337.066406 320.777344 319.871094 320.777344 308.554688 L 320.777344 307.199219 C 320.777344 275.066406 313.988281 258.324219 300.410156 257.871094 C 295.433594 257.871094 290.003906 257.871094 285.023438 257.417969 C 280.046875 257.417969 274.617188 256.964844 269.636719 256.964844 C 253.34375 256.964844 237.054688 256.964844 220.761719 256.964844 C 201.753906 256.964844 183.199219 256.964844 164.191406 256.964844 C 146.542969 256.964844 128.441406 257.417969 110.789062 257.417969 C 97.667969 257.417969 84.089844 257.417969 70.964844 257.871094 L 55.578125 257.871094 C 51.507812 257.871094 48.339844 254.703125 48.339844 250.628906 C 48.339844 246.558594 51.507812 243.390625 55.578125 243.390625 L 280.5 243.390625 C 282.761719 243.390625 285.023438 243.390625 287.738281 243.390625 C 301.316406 242.484375 315.796875 242.03125 324.394531 253.34375 Z M 344.308594 237.503906 L 95.855469 237.503906 C 84.542969 237.957031 76.398438 232.527344 71.417969 222.570312 C 65.535156 210.351562 65.988281 166.453125 72.324219 156.046875 C 80.015625 143.375 96.308594 142.46875 96.308594 142.46875 L 344.308594 142.46875 C 348.382812 142.46875 351.550781 145.636719 351.550781 149.710938 C 351.550781 153.785156 348.382812 156.949219 344.308594 156.949219 C 286.382812 156.5 97.667969 154.6875 92.6875 157.402344 C 89.070312 159.667969 80.015625 166.453125 79.566406 187.726562 C 79.113281 206.28125 85.449219 218.5 91.785156 221.667969 C 99.476562 225.738281 303.578125 223.023438 344.761719 222.117188 C 348.835938 222.117188 352.003906 225.285156 352.003906 229.359375 C 351.550781 234.335938 348.382812 237.503906 344.308594 237.503906 Z M 105.359375 171.886719 L 309.007812 171.886719 C 310.367188 171.886719 311.273438 172.789062 311.273438 174.148438 C 311.273438 175.503906 310.367188 176.410156 309.007812 176.410156 L 105.359375 176.410156 C 104.003906 176.410156 103.097656 175.503906 103.097656 174.148438 C 103.097656 172.789062 104.003906 171.886719 105.359375 171.886719 Z M 311.273438 190.441406 C 311.273438 191.796875 310.367188 192.703125 309.007812 192.703125 L 105.359375 192.703125 C 104.003906 192.703125 103.097656 191.796875 103.097656 190.441406 C 103.097656 189.082031 104.003906 188.175781 105.359375 188.175781 L 309.007812 188.175781 C 310.367188 188.175781 311.273438 189.535156 311.273438 190.441406 Z M 311.273438 206.730469 C 311.273438 208.089844 310.367188 208.996094 309.007812 208.996094 L 105.359375 208.996094 C 104.003906 208.996094 103.097656 208.089844 103.097656 206.730469 C 103.097656 205.375 104.003906 204.46875 105.359375 204.46875 L 309.007812 204.46875 C 310.367188 204.46875 311.273438 205.375 311.273438 206.730469 Z M 57.84375 87.257812 C 57.84375 85.898438 58.746094 84.996094 60.105469 84.996094 L 237.507812 84.996094 C 238.863281 84.996094 239.769531 85.898438 239.769531 87.257812 C 239.769531 88.617188 238.863281 89.519531 237.507812 89.519531 L 60.105469 89.519531 C 58.746094 89.519531 57.84375 88.617188 57.84375 87.257812 Z M 237.507812 108.074219 L 60.105469 108.074219 C 58.746094 108.074219 57.84375 107.171875 57.84375 105.8125 C 57.84375 104.453125 58.746094 103.550781 60.105469 103.550781 L 237.507812 103.550781 C 238.863281 103.550781 239.769531 104.453125 239.769531 105.8125 C 239.769531 107.171875 238.863281 108.074219 237.507812 108.074219 Z M 83.183594 273.710938 C 83.183594 272.351562 84.089844 271.445312 85.449219 271.445312 L 294.980469 271.445312 C 296.339844 271.445312 297.242188 272.351562 297.242188 273.710938 C 297.242188 275.066406 296.339844 275.972656 294.980469 275.972656 L 85.449219 275.972656 C 84.089844 275.972656 83.183594 275.066406 83.183594 273.710938 Z M 83.183594 273.710938 " fill-opacity="1" fill-rule="nonzero"/></svg>